# xmcd
#
# Track frame offsets:
# 150
# 18404
# 39037
# 56873
# 70671
# 90106
# 100462
# 111962
# 125425
# 142694
# 157586
# 170756
# 187693
# 200939
#
# Disc length: 2969 seconds
#
#
# Revision: 0
# Processed by: cddbd v1.5.1PL0 Copyright (c) Steve Scherf et al.
# Submitted via: FreeRIP 2.52 
#
DISCID=ad0b970e
DTITLE=Ramiro Viola and Pardini - Violeiro Matuto
DYEAR=2002
DGENRE=Sertanejo (Brasil)
TTITLE0=Homenagem à viola
TTITLE1=Violeiro matuto
TTITLE2=Fazenda Lageado
TTITLE3=A você radialista
TTITLE4=Lembranças do meu pai
TTITLE5=Pedágio do amor
TTITLE6=Barba Azul
TTITLE7=Sonhando com o Pantanal
TTITLE8=Violeiro Pagodista
TTITLE9=Rio Bonito a Rosa e Eu
TTITLE10=Pescador
TTITLE11=Saudade doída
TTITLE12=Volta à infância
TTITLE13=Bate-Papo Caipira
EXTD=Contatos:\nRamiro Viola and Pardini - Vendas de CD´s e Shows\n(0xx14) 3815-4088 - Botucatu - SP\ne-mail: ramiroepardini@uol.com.br\nSite: www.guiadebotucatu.com.br
EXTT0=Declamado
EXTT1=Balanço
EXTT2=Moda de Viola
EXTT3=Moda Campeira
EXTT4=Toada
EXTT5=Chamamé
EXTT6=Pagode
EXTT7=Polca
EXTT8=Pagode Estilizado
EXTT9=Moda Campeira
EXTT10=Cururú
EXTT11=Cateretê
EXTT12=Balanço
EXTT13=Desafio Instrumental
PLAYORDER=
